<?xml version="1.0" encoding="utf-8"?>
<!-- Generator: Adobe Illustrator 16.0.0, SVG Export Plug-In . SVG Version: 6.00 Build 0)  -->
<!DOCTYPE svg PUBLIC "-//W3C//DTD SVG 1.1//EN" "http://www.w3.org/Graphics/SVG/1.1/DTD/svg11.dtd">
<svg version="1.1" id="Calque_1" xmlns="http://www.w3.org/2000/svg" xmlns:xlink="http://www.w3.org/1999/xlink" x="0px" y="0px"
	 width="115px" height="115px" viewBox="0 0 115 115" enable-background="new 0 0 115 115" xml:space="preserve">
<g>
	<path fill="none" stroke="#000000" stroke-miterlimit="10" d="M58.5,16.06c-13.691,0-26.216,6.621-33.832,17.887l-2.508-8.779
		c-0.46-1.38-1.84-2.116-3.22-1.748c-1.38,0.46-2.116,1.84-1.748,3.22l4.232,14.812c0.368,1.104,1.38,1.84,2.484,1.84
		c0.184,0,0.46,0,0.736-0.092l14.72-4.232c1.38-0.46,2.116-1.84,1.748-3.22c-0.46-1.38-1.84-2.116-3.22-1.748l-9.049,2.602
		c6.682-9.849,17.594-15.666,29.657-15.666c19.872,0,35.973,16.1,35.973,35.972c0,19.871-16.101,35.972-35.973,35.972
		c-11.5,0-21.988-5.244-28.888-14.536c-0.828-1.012-2.3-1.287-3.404-0.46c-1.012,0.828-1.288,2.3-0.46,3.404
		C33.476,91.775,45.436,97.756,58.5,97.756c22.54,0,40.848-18.308,40.848-40.848S81.04,16.06,58.5,16.06z"/>
	<path fill="none" stroke="#000000" stroke-miterlimit="10" d="M68.527,67.12v-9.024l2.761,3.137
		c0.552,0.552,1.196,0.828,1.933,0.828c0.643,0,1.195-0.185,1.655-0.645c1.104-1.012,1.196-2.576,0.276-3.68L61.841,42.613
		c-0.048-0.063-0.105-0.121-0.16-0.181l-0.053-0.06c-0.014-0.015-0.031-0.026-0.045-0.041c-0.048-0.047-0.087-0.1-0.14-0.144
		c-0.037-0.034-0.079-0.056-0.117-0.088c-0.046-0.037-0.092-0.072-0.14-0.104c-1.091-0.789-2.569-0.646-3.423,0.376L44.24,57.736
		c-1.012,1.104-0.92,2.76,0.184,3.68c0.552,0.46,1.104,0.645,1.748,0.645c0.736,0,1.472-0.276,1.932-0.828l2.852-3.241v9.128h6.44
		v-7.177l4.967-0.092v7.269H68.527z"/>
</g>
</svg>
