<?xml version="1.0" encoding="utf-8"?>
<!-- Generator: Adobe Illustrator 16.0.0, SVG Export Plug-In . SVG Version: 6.00 Build 0)  -->
<!DOCTYPE svg PUBLIC "-//W3C//DTD SVG 1.1//EN" "http://www.w3.org/Graphics/SVG/1.1/DTD/svg11.dtd">
<svg version="1.1" id="Calque_1" xmlns="http://www.w3.org/2000/svg" xmlns:xlink="http://www.w3.org/1999/xlink" x="0px" y="0px"
	 width="115px" height="115px" viewBox="0 0 115 115" enable-background="new 0 0 115 115" xml:space="preserve">
<path fill="none" d="M57.5,26.856c-16.891,0-30.644,13.753-30.644,30.644c0,16.892,13.753,30.645,30.644,30.645
	c16.892,0,30.645-13.753,30.645-30.645C88.145,40.609,74.392,26.856,57.5,26.856z M78.638,56.854c0,0.092,0,0.276,0,0.369
	c0,0.092,0,0.092-0.093,0.184c0,0.093,0,0.093-0.093,0.186c0,0.092-0.092,0.184-0.092,0.276c0,0,0,0,0,0.093
	c-0.092,0.092-0.186,0.184-0.277,0.276l0,0c0,0-0.092,0-0.092,0.093c-0.093,0.092-0.093,0.092-0.185,0.185
	c0-0.093-0.092-0.093-0.185-0.093s-0.093,0.093-0.185,0.093c-0.094,0-0.186,0.092-0.186,0.092H77.16c-0.092,0-0.276,0-0.368,0l0,0
	h-4.708v14.86c0,1.016-0.831,1.847-1.847,1.847H61.1c-1.015,0-1.846-0.831-1.846-1.847v-9.045H57.5l0,0l0,0h-1.754v9.045
	c0,1.016-0.831,1.847-1.846,1.847h-9.138c-1.016,0-1.847-0.831-1.847-1.847V58.7h-4.707c-0.092,0-0.277,0-0.37,0
	c-0.092,0-0.092,0-0.184,0c-0.093,0-0.093,0-0.185-0.093c-0.093,0-0.093-0.092-0.185-0.092c0-0.093-0.093-0.093-0.093-0.185
	c-0.092-0.093-0.092-0.093-0.184-0.186c0,0-0.093,0-0.093-0.092l0,0c-0.092-0.092-0.185-0.185-0.277-0.277c0,0,0,0,0-0.092
	c-0.092-0.092-0.092-0.185-0.092-0.277c0-0.092,0-0.092-0.093-0.184c0-0.093,0-0.093-0.092-0.186c0-0.092,0-0.276,0-0.369l0,0
	v-0.092c0-0.093,0-0.185,0-0.277c0-0.093,0-0.093,0.092-0.185c0-0.093,0-0.093,0.093-0.185c0-0.092,0.092-0.092,0.092-0.185
	c0-0.092,0.092-0.092,0.092-0.185c0-0.092,0.092-0.092,0.185-0.185c0,0,0-0.092,0.093-0.092L56.3,35.624l0,0l0,0l0.092-0.092
	c0.092-0.092,0.092-0.092,0.185-0.185c0.092,0,0.092-0.092,0.185-0.092c0.092,0,0.092-0.093,0.185-0.093s0.092,0,0.185-0.092
	c0.092,0,0.092,0,0.185-0.093c0.092,0,0.092,0,0.185,0s0.092,0,0.185,0s0.092,0,0.185,0c0.093,0,0.093,0,0.185,0
	c0.093,0,0.093,0,0.185,0.093c0.093,0,0.093,0,0.185,0.092c0.092,0,0.092,0.093,0.185,0.093c0.092,0,0.092,0.092,0.185,0.092
	s0.093,0.092,0.186,0.185l0.092,0.092l0,0l0,0L78.36,55.285c0,0,0,0.092,0.092,0.092c0.093,0.092,0.093,0.092,0.186,0.185
	c0,0,0.092,0.093,0.092,0.185c0,0.092,0.092,0.092,0.092,0.185s0,0.092,0.093,0.185c0,0.092,0,0.092,0.092,0.185
	c0,0.092,0,0.184,0,0.277C78.638,56.762,78.638,56.762,78.638,56.854L78.638,56.854z"/>
<path fill="none" d="M42.639,55.008h2.215c1.016,0,1.846,0.831,1.846,1.847v14.86h5.446v-9.046c0-1.016,0.831-1.846,1.846-1.846
	H57.5l0,0l0,0h3.6c1.015,0,1.846,0.83,1.846,1.846v9.046h5.445v-14.86c0-1.016,0.831-1.847,1.847-1.847h2.216L57.5,39.778
	L42.639,55.008z"/>
<path d="M57.5,23.164c-18.922,0-34.336,15.415-34.336,34.336c0,18.921,15.415,34.337,34.336,34.337
	c18.921,0,34.337-15.416,34.337-34.337C91.837,38.578,76.421,23.164,57.5,23.164z M57.5,88.145
	c-16.891,0-30.644-13.753-30.644-30.645c0-16.891,13.753-30.644,30.644-30.644c16.892,0,30.645,13.753,30.645,30.644
	C88.145,74.392,74.392,88.145,57.5,88.145z"/>
<path d="M78.638,56.484c0-0.092,0-0.092-0.093-0.184c0-0.093,0-0.093-0.093-0.185c0-0.093-0.092-0.093-0.092-0.185
	s-0.092-0.092-0.092-0.185c0-0.092-0.094-0.092-0.186-0.185c0,0,0-0.092-0.092-0.092L58.792,35.901l0,0l0,0l-0.093-0.092
	c-0.092-0.092-0.092-0.092-0.185-0.185c-0.092,0-0.092-0.092-0.184-0.092c-0.093,0-0.093-0.092-0.185-0.092
	c-0.093,0-0.093,0-0.185-0.092c-0.093,0-0.093,0-0.185-0.092c-0.092,0-0.092,0-0.185,0s-0.092,0-0.185,0s-0.092,0-0.185,0
	s-0.092,0-0.185,0s-0.092,0-0.185,0.092c-0.092,0-0.092,0-0.185,0.092c-0.092,0-0.092,0.092-0.185,0.092
	c-0.092,0-0.092,0.092-0.184,0.092c-0.093,0-0.093,0.093-0.185,0.185l-0.093,0.092l0,0l0,0l-19.106,19.66c0,0,0,0.093-0.092,0.093
	c-0.092,0.092-0.092,0.092-0.185,0.184c0,0.092-0.092,0.092-0.092,0.185c0,0.093-0.093,0.093-0.093,0.185
	c0,0.093,0,0.093-0.092,0.185c0,0.092,0,0.092-0.092,0.185c0,0.092,0,0.185,0,0.277v0.092l0,0c0,0.092,0,0.277,0,0.369
	s0,0.092,0.092,0.185c0,0.093,0,0.093,0.092,0.185c0,0.092,0.093,0.185,0.093,0.277c0,0,0,0,0,0.092
	c0.092,0.092,0.184,0.185,0.276,0.277l0,0c0,0,0.092,0,0.092,0.092c0.093,0.093,0.093,0.093,0.185,0.185
	c0.092,0,0.092,0.093,0.185,0.093c0.092,0,0.092,0.092,0.185,0.092c0.092,0,0.092,0,0.185,0.092c0.092,0,0.092,0,0.184,0
	c0.093,0,0.277,0,0.37,0h4.707v14.86c0,1.017,0.831,1.848,1.847,1.848H53.9c1.015,0,1.846-0.831,1.846-1.848v-9.045H57.5l0,0l0,0
	h1.754v9.045c0,1.017,0.831,1.848,1.846,1.848h9.138c1.016,0,1.847-0.831,1.847-1.848V58.7h4.708l0,0c0.092,0,0.276,0,0.368,0h0.092
	c0.092,0,0.186,0,0.186-0.093c0.092,0,0.092-0.092,0.185-0.092s0.093-0.093,0.185-0.093c0.092-0.092,0.092-0.092,0.185-0.185
	c0,0,0.092,0,0.092-0.093l0,0c0.092-0.092,0.186-0.184,0.277-0.276c0,0,0,0,0-0.093c0.092-0.092,0.092-0.184,0.092-0.276
	s0-0.093,0.093-0.185c0-0.092,0-0.092,0.093-0.185c0-0.093,0-0.276,0-0.369l0,0v-0.093C78.638,56.577,78.638,56.577,78.638,56.484z
	 M70.237,55.008c-1.016,0-1.847,0.831-1.847,1.847v14.86h-5.445v-9.046c0-1.016-0.831-1.846-1.846-1.846h-3.6l0,0l0,0h-3.6
	c-1.016,0-1.846,0.83-1.846,1.846v9.046h-5.446v-14.86c0-1.016-0.831-1.847-1.846-1.847h-2.215L57.5,39.778l14.861,15.138h-2.124
	V55.008z"/>
</svg>
