<?xml version="1.0" encoding="utf-8"?>
<!-- Generator: Adobe Illustrator 16.0.0, SVG Export Plug-In . SVG Version: 6.00 Build 0)  -->
<!DOCTYPE svg PUBLIC "-//W3C//DTD SVG 1.1//EN" "http://www.w3.org/Graphics/SVG/1.1/DTD/svg11.dtd">
<svg version="1.1" id="Calque_1" xmlns="http://www.w3.org/2000/svg" xmlns:xlink="http://www.w3.org/1999/xlink" x="0px" y="0px"
	 width="115px" height="115px" viewBox="0 0 115 115" enable-background="new 0 0 115 115" xml:space="preserve">
<g>
	<g>
		<path d="M58.5,99.166c-23.25,0-42.167-18.915-42.167-42.166S35.25,14.833,58.5,14.833S100.666,33.749,100.666,57
			S81.751,99.166,58.5,99.166z M58.5,18.054c-21.476,0-38.946,17.471-38.946,38.946S37.024,95.946,58.5,95.946
			c21.475,0,38.946-17.472,38.946-38.946S79.976,18.054,58.5,18.054z"/>
	</g>
	<g>
		<path d="M70.928,77.623h-6.44c-1.396,0-2.53-1.134-2.53-2.529V38.906c0-1.395,1.135-2.53,2.53-2.53h6.44
			c1.396,0,2.529,1.135,2.529,2.53v36.187C73.457,76.488,72.323,77.623,70.928,77.623z M65.178,74.404h5.06V39.596h-5.06V74.404z"/>
	</g>
	<g>
		<path d="M52.513,77.623h-6.44c-1.396,0-2.53-1.134-2.53-2.529V38.906c0-1.395,1.134-2.53,2.53-2.53h6.44
			c1.396,0,2.53,1.135,2.53,2.53v36.187C55.042,76.488,53.908,77.623,52.513,77.623z M46.763,74.404h5.06V39.596h-5.06V74.404z"/>
	</g>
</g>
</svg>
