<?xml version="1.0" encoding="utf-8"?>
<!-- Generator: Adobe Illustrator 16.0.0, SVG Export Plug-In . SVG Version: 6.00 Build 0)  -->
<!DOCTYPE svg PUBLIC "-//W3C//DTD SVG 1.1//EN" "http://www.w3.org/Graphics/SVG/1.1/DTD/svg11.dtd">
<svg version="1.1" id="Calque_1" xmlns="http://www.w3.org/2000/svg" xmlns:xlink="http://www.w3.org/1999/xlink" x="0px" y="0px"
	 width="115px" height="115px" viewBox="0 0 115 115" enable-background="new 0 0 115 115" xml:space="preserve">
<g>
	<g>
		<path d="M57.5,100.166c-23.25,0-42.167-18.915-42.167-42.166S34.25,15.833,57.5,15.833S99.666,34.749,99.666,58
			S80.751,100.166,57.5,100.166z M57.5,19.054c-21.476,0-38.946,17.471-38.946,38.946S36.024,96.946,57.5,96.946
			S96.446,79.475,96.446,58C96.446,39.193,78.976,19.054,57.5,19.054z"/>
	</g>
	<g>
		<path d="M46.854,74.315c-0.292,0-0.582-0.079-0.839-0.237c-0.479-0.291-0.771-0.812-0.771-1.373v-29.41
			c0-0.562,0.292-1.082,0.771-1.375c0.479-0.292,1.074-0.315,1.574-0.058l28.656,14.704c0.537,0.276,0.875,0.829,0.875,1.433
			s-0.338,1.156-0.875,1.433L47.59,74.137C47.359,74.256,47.106,74.315,46.854,74.315z M48.465,45.931v24.138L71.984,58
			L48.465,45.931z"/>
	</g>
</g>
</svg>
